<svg width="20" height="20" viewBox="0 0 20 20" fill="none" xmlns="http://www.w3.org/2000/svg">
<path fill-rule="evenodd" clip-rule="evenodd" d="M9.99992 0C4.93717 0 0.833252 4.10392 0.833252 9.16667C0.833252 10.8992 1.3145 12.5217 2.15142 13.904L1.33375 16.6833C1.2868 16.8429 1.28372 17.0122 1.32481 17.1734C1.3659 17.3345 1.44966 17.4817 1.56728 17.5993C1.6849 17.7169 1.83203 17.8007 1.99322 17.8418C2.1544 17.8829 2.32368 17.8798 2.48325 17.8328L5.26259 17.0152C6.69143 17.8795 8.32997 18.3355 9.99992 18.3333C15.0627 18.3333 19.1666 14.2294 19.1666 9.16667C19.1666 4.10392 15.0627 0 9.99992 0ZM7.92642 11.2411C9.78084 13.0946 11.5509 13.3393 12.1761 13.3622C13.1267 13.3971 14.0525 12.6711 14.4128 11.8287C14.4578 11.7238 14.4741 11.6088 14.46 11.4955C14.4458 11.3822 14.4016 11.2748 14.3321 11.1842C13.8298 10.5426 13.1505 10.0815 12.4868 9.62317C12.3483 9.52713 12.178 9.48856 12.0116 9.51557C11.8453 9.54259 11.6959 9.63308 11.5949 9.768L11.0449 10.6067C11.0159 10.6517 10.9708 10.6839 10.9189 10.6968C10.867 10.7097 10.8121 10.7024 10.7653 10.6764C10.3923 10.4628 9.84867 10.0998 9.45817 9.70933C9.06767 9.31883 8.72667 8.8 8.53509 8.45075C8.51191 8.40625 8.50536 8.35495 8.51662 8.30605C8.52787 8.25716 8.5562 8.21388 8.5965 8.184L9.4435 7.55517C9.56473 7.45029 9.64299 7.30437 9.66329 7.14537C9.68359 6.98637 9.6445 6.82546 9.5535 6.6935C9.14283 6.09217 8.66434 5.32767 7.97042 4.82075C7.88067 4.75627 7.7758 4.71606 7.66595 4.70401C7.5561 4.69197 7.445 4.7085 7.34342 4.752C6.50009 5.11317 5.77042 6.039 5.80525 6.99142C5.82817 7.61658 6.07292 9.38667 7.92642 11.2411Z" fill="#342B2C"/>
</svg>
