<svg width="10" height="10" viewBox="0 0 10 10" fill="none" xmlns="http://www.w3.org/2000/svg">
<path fill-rule="evenodd" clip-rule="evenodd" d="M9.16343 8.8803e-05C9.16377 0.000190049 9.16406 0.000349232 9.16465 0.000942242L9.99906 0.83535C9.99965 0.835943 9.99981 0.836218 9.99991 0.836565C10 0.836887 10 0.837241 9.99991 0.837563C9.99981 0.837896 9.99965 0.838171 9.99906 0.838764L5.83782 5L9.99906 9.16124C9.99965 9.16182 9.99981 9.16211 9.99991 9.16244C10 9.16277 10 9.16312 9.99991 9.16345C9.99981 9.16377 9.99965 9.16406 9.99906 9.16465L9.16465 9.99906C9.16406 9.99965 9.16378 9.99981 9.16343 9.99991C9.16311 10 9.16276 10 9.16244 9.99991C9.16211 9.99981 9.16183 9.99965 9.16124 9.99906L5 5.83782L0.838764 9.99906C0.838185 9.99965 0.837896 9.99981 0.837563 9.99991C0.837233 10 0.836881 10 0.836551 9.99991C0.836233 9.99981 0.835943 9.99965 0.83535 9.99906L0.000942242 9.16465C0.000349232 9.16406 0.000190049 9.16378 8.8803e-05 9.16343C-2.9601e-05 9.16311 -2.9601e-05 9.16276 8.8803e-05 9.16244C0.000190049 9.16211 0.000349232 9.16183 0.000942242 9.16124L4.16216 5L0.000942242 0.838764C0.000349232 0.838185 0.000190049 0.837896 8.8803e-05 0.837563C-1.18177e-05 0.837233 -1.18177e-05 0.836881 8.8803e-05 0.836551C0.000190049 0.836233 0.000349232 0.835943 0.000942242 0.83535L0.83535 0.000942242C0.835943 0.000349232 0.836218 0.000190049 0.836565 8.8803e-05C0.836887 -2.9601e-05 0.837241 -2.9601e-05 0.837563 8.8803e-05C0.837896 0.000190049 0.838171 0.000349232 0.838764 0.000942242L5 4.16216L9.16124 0.000942242C9.16182 0.000349232 9.16211 0.000190049 9.16244 8.8803e-05C9.16277 -1.18177e-05 9.16312 -1.18177e-05 9.16345 8.8803e-05H9.16343Z" fill="#F7EFE9"/>
</svg>
