<svg width="20" height="20" viewBox="0 0 20 20" fill="none" xmlns="http://www.w3.org/2000/svg">
<path d="M8.375 5.41663C8.60632 5.41665 8.81039 5.506 8.98633 5.6842L12.6514 9.38342C12.7465 9.47944 12.8154 9.57868 12.8564 9.68127C12.8968 9.78374 12.917 9.88995 12.917 9.99963C12.917 10.1095 12.8969 10.2164 12.8564 10.319C12.8154 10.4215 12.7465 10.5209 12.6514 10.6168L8.98633 14.316C8.81039 14.4942 8.60632 14.5836 8.375 14.5836C8.1443 14.5836 7.94028 14.4943 7.76367 14.316C7.58788 14.1379 7.50011 13.9324 7.5 13.6998C7.5 13.467 7.58774 13.2609 7.76367 13.0826L10.8184 9.99963L7.76367 6.91663C7.58796 6.73848 7.5 6.53307 7.5 6.30042C7.50003 6.06776 7.58791 5.86234 7.76367 5.6842C7.94028 5.50597 8.1443 5.41663 8.375 5.41663Z" fill="#342B2C"/>
</svg>
