<svg width="55" height="55" viewBox="0 0 55 55" fill="none" xmlns="http://www.w3.org/2000/svg">
<path d="M27.3438 0C21.9357 0 16.649 1.60368 12.1524 4.60825C7.65573 7.61282 4.15101 11.8833 2.08143 16.8798C0.0118472 21.8762 -0.52965 27.3741 0.525415 32.6783C1.58048 37.9824 4.18472 42.8546 8.00881 46.6787C11.8329 50.5028 16.7051 53.107 22.0093 54.1621C27.3134 55.2172 32.8113 54.6757 37.8078 52.6061C42.8042 50.5365 47.0747 47.0318 50.0793 42.5351C53.0838 38.0385 54.6875 32.7518 54.6875 27.3438C54.6796 20.0942 51.7961 13.1438 46.6699 8.01759C41.5437 2.89137 34.5933 0.0079614 27.3438 0ZM27.3438 52.5C22.3683 52.5 17.5046 51.0246 13.3677 48.2604C9.23077 45.4962 6.00643 41.5673 4.10242 36.9706C2.1984 32.3739 1.70022 27.3158 2.67088 22.436C3.64154 17.5562 6.03744 13.0738 9.55561 9.55559C13.0738 6.03743 17.5562 3.64153 22.436 2.67087C27.3159 1.70021 32.3739 2.19839 36.9706 4.10241C41.5673 6.00642 45.4962 9.23076 48.2604 13.3677C51.0246 17.5046 52.5 22.3683 52.5 27.3438C52.4928 34.0134 49.8401 40.4078 45.1239 45.1239C40.4078 49.8401 34.0134 52.4928 27.3438 52.5ZM39.9547 26.4168L22.4547 15.4793C22.2892 15.3758 22.099 15.3186 21.9039 15.3134C21.7087 15.3083 21.5158 15.3554 21.345 15.45C21.1743 15.5446 21.032 15.6832 20.9328 15.8513C20.8337 16.0194 20.7814 16.2111 20.7813 16.4062V38.2812C20.7812 38.4765 20.8334 38.6683 20.9324 38.8366C21.0315 39.0049 21.1738 39.1436 21.3445 39.2383C21.5072 39.3274 21.6895 39.3745 21.875 39.375C22.0801 39.3748 22.2809 39.317 22.4547 39.2082L39.9547 28.2707C40.1118 28.1723 40.2413 28.0357 40.331 27.8735C40.4208 27.7114 40.4679 27.5291 40.4679 27.3438C40.4679 27.1584 40.4208 26.9761 40.331 26.814C40.2413 26.6518 40.1118 26.5152 39.9547 26.4168ZM22.9688 36.307V18.3805L37.3106 27.3438L22.9688 36.307Z" fill="#F7EFE9"/>
</svg>
