<svg width="20" height="20" viewBox="0 0 20 20" fill="none" xmlns="http://www.w3.org/2000/svg">
<g clip-path="url(#clip0_21843_1193)">
<mask id="mask0_21843_1193" style="mask-type:luminance" maskUnits="userSpaceOnUse" x="0" y="0" width="20" height="20">
<path d="M12.688 0H12.652H10.746H7.312C1.29 0 0 1.292 0 7.312V12.688C0 18.71 1.292 20 7.312 20H10.746H12.652H12.688C18.71 20 20 18.708 20 12.688V7.312C20 1.29 18.708 0 12.688 0Z" fill="white"/>
</mask>
<g mask="url(#mask0_21843_1193)">
<rect width="20" height="20" fill="#342B2C"/>
</g>
<path fill-rule="evenodd" clip-rule="evenodd" d="M10.1642 17.5662C8.66408 17.5662 7.96693 17.3472 6.75514 16.4712C5.98865 17.4567 3.56142 18.2269 3.45557 16.9092C3.45557 15.9201 3.23658 15.0842 2.98838 14.1717C2.69273 13.0476 2.35693 11.7956 2.35693 9.98158C2.35693 5.64907 5.912 2.38965 10.1241 2.38965C14.3398 2.38965 17.643 5.80967 17.643 10.0217C17.6571 14.1687 14.3111 17.5441 10.1642 17.5662ZM10.2263 6.13452C8.17498 6.02867 6.5763 7.4485 6.22225 9.67499C5.93025 11.5182 6.44855 13.7629 6.89019 13.8797C7.10189 13.9308 7.63479 13.5002 7.96693 13.168C8.51616 13.5474 9.15572 13.7753 9.82112 13.8286C11.9466 13.9309 13.7627 12.3128 13.9054 10.1896C13.9885 8.06201 12.352 6.25992 10.2263 6.13817L10.2263 6.13452Z" fill="white"/>
</g>
<defs>
<clipPath id="clip0_21843_1193">
<rect width="20" height="20" fill="white"/>
</clipPath>
</defs>
</svg>
