<svg width="79" height="32" viewBox="0 0 79 32" fill="none" xmlns="http://www.w3.org/2000/svg">
<path fill-rule="evenodd" clip-rule="evenodd" d="M39.5 19C39.481 13.7597 35.235 9.5176 30 9.5176C35.2467 9.5176 39.5 5.25638 39.5 0C39.5189 5.24025 43.765 9.48239 49 9.48239C43.7532 9.48239 39.5 13.7436 39.5 19Z" fill="#342B2C"/>
<path fill-rule="evenodd" clip-rule="evenodd" d="M9.5 32C9.481 26.7597 5.23502 22.5176 0 22.5176C5.2467 22.5176 9.5 18.2564 9.5 13C9.51891 18.2403 13.765 22.4824 19 22.4824C13.7532 22.4824 9.5 26.7436 9.5 32Z" fill="#342B2C"/>
<path fill-rule="evenodd" clip-rule="evenodd" d="M69.5 32C69.481 26.7597 65.235 22.5176 60 22.5176C65.2467 22.5176 69.5 18.2564 69.5 13C69.5189 18.2403 73.765 22.4824 79 22.4824C73.7532 22.4824 69.5 26.7436 69.5 32Z" fill="#342B2C"/>
</svg>
