<svg width="110" height="30" viewBox="0 0 110 30" fill="none" xmlns="http://www.w3.org/2000/svg">
<path fill-rule="evenodd" clip-rule="evenodd" d="M15 30C14.97 21.7259 8.26583 15.0278 0 15.0278C8.28427 15.0278 15 8.29954 15 0C15.0299 8.27408 21.7342 14.9722 30 14.9722C21.7156 14.9722 15 21.7005 15 30Z" fill="#342B2C"/>
<path fill-rule="evenodd" clip-rule="evenodd" d="M55 30C54.97 21.7259 48.2658 15.0278 40 15.0278C48.2843 15.0278 55 8.29954 55 0C55.0299 8.27408 61.7342 14.9722 70 14.9722C61.7156 14.9722 55 21.7005 55 30Z" fill="#342B2C"/>
<path fill-rule="evenodd" clip-rule="evenodd" d="M95 30C94.97 21.7259 88.2658 15.0278 80 15.0278C88.2843 15.0278 95 8.29954 95 0C95.0299 8.27408 101.734 14.9722 110 14.9722C101.716 14.9722 95 21.7005 95 30Z" fill="#342B2C"/>
</svg>
