<svg width="118" height="22" viewBox="0 0 118 22" fill="none" xmlns="http://www.w3.org/2000/svg">
<path d="M5.09993 21.9C3.61993 21.9 2.39993 21.52 1.43993 20.76C0.479932 20 -6.82548e-05 18.95 -6.82548e-05 17.61C-6.82548e-05 17.01 0.129932 16.5 0.389932 16.08C0.649932 15.66 0.969932 15.35 1.34993 15.15C1.74993 14.93 2.12993 14.82 2.48993 14.82C3.06993 14.82 3.49993 14.97 3.77993 15.27C4.05993 15.55 4.19993 15.9 4.19993 16.32C4.19993 16.74 4.07993 17.07 3.83993 17.31C3.61993 17.53 3.25993 17.72 2.75993 17.88C2.41993 17.98 2.16993 18.1 2.00993 18.24C1.86993 18.38 1.79993 18.6 1.79993 18.9C1.79993 19.52 2.11993 20.02 2.75993 20.4C3.39993 20.76 4.17993 20.94 5.09993 20.94C6.07993 20.94 6.83993 20.56 7.37993 19.8C7.91993 19.04 8.18993 18.13 8.18993 17.07V1.76998C8.18993 1.48998 8.11993 1.28998 7.97993 1.16998C7.85993 1.02998 7.65993 0.959985 7.37993 0.959985H5.21993V-1.50204e-05H13.9199V0.959985H11.7599C11.4799 0.959985 11.2699 1.02998 11.1299 1.16998C11.0099 1.28998 10.9499 1.48998 10.9499 1.76998V15.54C10.9499 16.86 10.6799 18 10.1399 18.96C9.59993 19.92 8.87993 20.65 7.97993 21.15C7.09993 21.65 6.13993 21.9 5.09993 21.9ZM22.5011 21.72C20.6411 21.72 19.1411 21.09 18.0011 19.83C16.8811 18.57 16.3211 16.82 16.3211 14.58C16.3211 13.3 16.5711 12.11 17.0711 11.01C17.5711 9.88998 18.2611 8.99998 19.1411 8.33998C20.0411 7.65998 21.0411 7.31998 22.1411 7.31998C23.3611 7.31998 24.3611 7.64998 25.1411 8.30998C25.9211 8.96998 26.4811 9.80999 26.8211 10.83C27.1811 11.83 27.3611 12.86 27.3611 13.92C27.3611 14.14 27.2911 14.29 27.1511 14.37C27.0111 14.43 26.7711 14.46 26.4311 14.46H18.9611C18.9611 16.46 19.2411 18.05 19.8011 19.23C20.3811 20.41 21.3211 21 22.6211 21C23.5411 21 24.4011 20.65 25.2011 19.95C26.0211 19.25 26.5411 18.16 26.7611 16.68H27.4811C27.3611 18.14 26.8511 19.35 25.9511 20.31C25.0711 21.25 23.9211 21.72 22.5011 21.72ZM24.7811 13.74C24.7811 12.14 24.5711 10.79 24.1511 9.68998C23.7311 8.58998 23.0411 8.03998 22.0811 8.03998C21.0611 8.03998 20.2811 8.59998 19.7411 9.71999C19.2211 10.82 18.9611 12.16 18.9611 13.74H24.7811ZM31.7699 10.17C31.4899 9.50998 31.2299 9.04998 30.9899 8.78998C30.7699 8.52998 30.4099 8.39999 29.9099 8.39999H29.2199V7.67998H35.6999V8.39999H34.7699C34.4899 8.39999 34.2699 8.47998 34.1099 8.63998C33.9699 8.79998 33.8999 8.99999 33.8999 9.23998C33.8999 9.49998 33.9599 9.78998 34.0799 10.11L37.4399 18.21L39.4799 11.7C39.5399 11.52 39.5899 11.33 39.6299 11.13C39.6699 10.93 39.6899 10.76 39.6899 10.62C39.6899 10.26 39.5599 9.79998 39.2999 9.23998C39.1799 8.95998 39.0399 8.74998 38.8799 8.60998C38.7399 8.46999 38.5399 8.39999 38.2799 8.39999H37.3799V7.67998H43.8599V8.39999H42.6599C42.0799 8.39999 41.7899 8.69999 41.7899 9.29999C41.7899 9.51998 41.8699 9.83998 42.0299 10.26L44.8199 18.21L47.2499 11.1C47.3299 10.86 47.3999 10.59 47.4599 10.29C47.5399 9.98999 47.5799 9.74999 47.5799 9.56999C47.5799 8.78999 47.2199 8.39999 46.4999 8.39999H45.7799V7.67998H51.2399V8.39999H50.5499C50.1099 8.39999 49.6999 8.54998 49.3199 8.84998C48.9599 9.12998 48.6799 9.56998 48.4799 10.17L44.3999 21.72H43.8599L40.2599 11.88L37.1399 21.72H36.5999L31.7699 10.17ZM58.1554 21.72C56.2954 21.72 54.7954 21.09 53.6554 19.83C52.5354 18.57 51.9754 16.82 51.9754 14.58C51.9754 13.3 52.2254 12.11 52.7254 11.01C53.2254 9.88998 53.9154 8.99998 54.7954 8.33998C55.6954 7.65998 56.6954 7.31998 57.7954 7.31998C59.0154 7.31998 60.0154 7.64998 60.7954 8.30998C61.5754 8.96998 62.1354 9.80999 62.4754 10.83C62.8354 11.83 63.0154 12.86 63.0154 13.92C63.0154 14.14 62.9454 14.29 62.8054 14.37C62.6654 14.43 62.4254 14.46 62.0854 14.46H54.6154C54.6154 16.46 54.8954 18.05 55.4554 19.23C56.0354 20.41 56.9754 21 58.2754 21C59.1954 21 60.0554 20.65 60.8554 19.95C61.6754 19.25 62.1954 18.16 62.4154 16.68H63.1354C63.0154 18.14 62.5054 19.35 61.6054 20.31C60.7254 21.25 59.5754 21.72 58.1554 21.72ZM60.4354 13.74C60.4354 12.14 60.2254 10.79 59.8054 9.68998C59.3854 8.58998 58.6954 8.03998 57.7354 8.03998C56.7154 8.03998 55.9354 8.59998 55.3954 9.71999C54.8754 10.82 54.6154 12.16 54.6154 13.74H60.4354ZM65.1742 20.64H66.7342C66.9742 20.64 67.1442 20.59 67.2442 20.49C67.3442 20.39 67.3942 20.22 67.3942 19.98V1.37999C67.3942 1.13998 67.3442 0.969984 67.2442 0.869985C67.1442 0.769985 66.9742 0.719985 66.7342 0.719985H65.1742V-1.50204e-05H69.5542V19.98C69.5542 20.22 69.6042 20.39 69.7042 20.49C69.8042 20.59 69.9742 20.64 70.2142 20.64H71.7742V21.36H65.1742V20.64ZM73.2602 20.64H74.8202C75.0602 20.64 75.2302 20.59 75.3302 20.49C75.4302 20.39 75.4802 20.22 75.4802 19.98V1.37999C75.4802 1.13998 75.4302 0.969984 75.3302 0.869985C75.2302 0.769985 75.0602 0.719985 74.8202 0.719985H73.2602V-1.50204e-05H77.6402V19.98C77.6402 20.22 77.6902 20.39 77.7902 20.49C77.8902 20.59 78.0602 20.64 78.3002 20.64H79.8602V21.36H73.2602V20.64ZM84.7061 21.72C84.1661 21.72 83.7161 21.55 83.3561 21.21C83.0161 20.85 82.8461 20.4 82.8461 19.86C82.8461 19.32 83.0161 18.88 83.3561 18.54C83.7161 18.18 84.1661 18 84.7061 18C85.2461 18 85.6861 18.18 86.0261 18.54C86.3861 18.88 86.5661 19.32 86.5661 19.86C86.5661 20.4 86.3861 20.85 86.0261 21.21C85.6861 21.55 85.2461 21.72 84.7061 21.72ZM94.8543 20.4H97.7343C98.2743 20.4 98.5443 20.13 98.5443 19.59V1.67998C98.5443 1.39998 98.4843 1.19998 98.3643 1.07998C98.2443 0.939984 98.0343 0.869985 97.7343 0.869985H96.6543C95.3943 0.869985 94.3043 1.50998 93.3843 2.78998C92.8043 3.60998 92.4143 4.63998 92.2143 5.87998C92.0143 7.09998 91.9143 7.99998 91.9143 8.57998H91.0743L91.3143 -1.50204e-05H108.534L108.774 8.57998H107.934C107.934 7.99998 107.834 7.09998 107.634 5.87998C107.434 4.63998 107.044 3.60998 106.464 2.78998C105.544 1.50998 104.454 0.869985 103.194 0.869985H102.114C101.814 0.869985 101.604 0.939984 101.484 1.07998C101.364 1.19998 101.304 1.39998 101.304 1.67998V19.59C101.304 20.13 101.574 20.4 102.114 20.4H104.994V21.36H94.8543V20.4ZM114.29 3.95998C113.85 3.95998 113.48 3.80998 113.18 3.50998C112.88 3.20998 112.73 2.83998 112.73 2.39998C112.73 1.93998 112.88 1.56998 113.18 1.28998C113.48 0.989985 113.85 0.839985 114.29 0.839985C114.75 0.839985 115.12 0.989985 115.4 1.28998C115.7 1.56998 115.85 1.93998 115.85 2.39998C115.85 2.83998 115.7 3.20998 115.4 3.50998C115.12 3.80998 114.75 3.95998 114.29 3.95998ZM111.47 20.64H112.73C112.97 20.64 113.14 20.59 113.24 20.49C113.34 20.39 113.39 20.22 113.39 19.98V9.05998C113.39 8.81998 113.34 8.64998 113.24 8.54998C113.14 8.44998 112.97 8.39999 112.73 8.39999H111.47V7.67998H115.55V19.98C115.55 20.22 115.6 20.39 115.7 20.49C115.8 20.59 115.97 20.64 116.21 20.64H117.47V21.36H111.47V20.64Z" fill="#131414"/>
</svg>
